<svg width="933" height="496" viewBox="0 0 933 496" fill="none" xmlns="http://www.w3.org/2000/svg">
<rect width="532.742" height="31.7618" rx="15.8809" transform="matrix(0.771502 -0.636226 0.67559 0.737278 55 338.944)" fill="black"/>
<rect width="183.113" height="31.7664" rx="15.8832" transform="matrix(-0.769773 -0.638318 0.677617 -0.735415 582.925 140.623)" fill="black"/>
<rect x="564.569" y="133.339" width="129.052" height="32.7074" rx="16.3537" transform="rotate(-90 564.569 133.339)" fill="black"/>
<rect x="564.626" y="4.15942" width="136.036" height="31.0282" rx="15.5141" fill="black"/>
<rect x="667.93" y="216.159" width="211" height="32.6776" rx="16.3388" transform="rotate(-90 667.93 216.159)" fill="black"/>
<rect width="244.926" height="31.7664" rx="15.8832" transform="matrix(-0.769773 -0.638318 0.677617 -0.735415 851.475 362.312)" fill="black"/>
<path d="M58.3949 458C55.5949 458 54.1949 456.6 54.1949 453.8V394.4C54.1949 391.6 55.5949 390.2 58.3949 390.2H84.4949C89.7949 390.2 93.8616 391.6 96.6949 394.4C99.5616 397.2 100.995 401.2 100.995 406.4V409.1C100.995 413.6 99.5783 417.083 96.7449 419.55C102.045 422.517 104.695 427.933 104.695 435.8V439.2C104.695 445.333 103.062 450 99.7949 453.2C96.5616 456.4 91.8949 458 85.7949 458H58.3949ZM62.5949 449.6H85.7949C89.5616 449.6 92.2449 448.8 93.8449 447.2C95.4783 445.567 96.2949 442.9 96.2949 439.2V435.8C96.2949 432.1 95.5116 429.467 93.9449 427.9C92.3783 426.3 89.6616 425.5 85.7949 425.5H62.5949V449.6ZM62.5949 417.1H86.2949C88.7283 417.1 90.3783 416.35 91.2449 414.85C92.1449 413.35 92.5949 411.433 92.5949 409.1V406.4C92.5949 403.5 91.9949 401.483 90.7949 400.35C89.5949 399.183 87.4949 398.6 84.4949 398.6H62.5949V417.1ZM118.28 457.6C115.613 456.567 114.813 454.733 115.88 452.1L139.68 393.5C140.68 391.3 142.247 390.2 144.38 390.2H144.58C146.747 390.3 148.213 391.4 148.98 393.5L173.18 452.1C174.247 454.733 173.48 456.567 170.88 457.6C168.247 458.633 166.413 457.867 165.38 455.3L159.98 442.2H128.83L123.68 455.3C122.647 457.9 120.847 458.667 118.28 457.6ZM132.13 433.8H156.53L144.08 403.5L132.13 433.8ZM184.882 457.6C182.215 456.567 181.415 454.733 182.482 452.1L206.282 393.5C207.282 391.3 208.848 390.2 210.982 390.2H211.182C213.348 390.3 214.815 391.4 215.582 393.5L239.782 452.1C240.848 454.733 240.082 456.567 237.482 457.6C234.848 458.633 233.015 457.867 231.982 455.3L226.582 442.2H195.432L190.282 455.3C189.248 457.9 187.448 458.667 184.882 457.6ZM198.732 433.8H223.132L210.682 403.5L198.732 433.8ZM258.883 458C256.083 458 254.683 456.6 254.683 453.8V394.4C254.683 391.6 256.083 390.2 258.883 390.2C260.317 390.2 261.717 391.033 263.083 392.7L303.283 444.5H301.183V394.4C301.183 391.6 302.583 390.2 305.383 390.2C308.183 390.2 309.583 391.6 309.583 394.4V453.8C309.583 456.6 308.183 458 305.383 458C303.883 458 302.483 457.167 301.183 455.5L260.983 403.7H263.083V453.8C263.083 456.6 261.683 458 258.883 458ZM378.762 458C373.062 458 368.612 456.85 365.412 454.55C362.245 452.25 360.262 448.7 359.462 443.9C359.329 442.433 359.629 441.333 360.362 440.6C361.095 439.867 362.162 439.5 363.562 439.5C364.962 439.5 365.979 439.833 366.612 440.5C367.279 441.167 367.729 442.2 367.962 443.6C368.462 445.9 369.529 447.483 371.162 448.35C372.829 449.183 375.362 449.6 378.762 449.6H393.162C397.462 449.6 400.379 448.833 401.912 447.3C403.479 445.733 404.262 442.833 404.262 438.6C404.262 434.3 403.462 431.367 401.862 429.8C400.262 428.2 397.362 427.4 393.162 427.4H380.762C374.462 427.4 369.779 425.867 366.712 422.8C363.679 419.7 362.162 415 362.162 408.7C362.162 402.433 363.662 397.783 366.662 394.75C369.695 391.717 374.362 390.2 380.662 390.2H392.562C397.862 390.2 402.012 391.283 405.012 393.45C408.045 395.617 409.962 398.933 410.762 403.4C410.962 404.833 410.695 405.933 409.962 406.7C409.229 407.433 408.129 407.8 406.662 407.8C405.329 407.8 404.329 407.45 403.662 406.75C402.995 406.05 402.562 405.033 402.362 403.7C401.829 401.733 400.812 400.4 399.312 399.7C397.812 398.967 395.562 398.6 392.562 398.6H380.662C376.662 398.6 373.979 399.317 372.612 400.75C371.245 402.15 370.562 404.8 370.562 408.7C370.562 412.633 371.262 415.333 372.662 416.8C374.062 418.267 376.762 419 380.762 419H393.162C399.729 419 404.612 420.6 407.812 423.8C411.045 427 412.662 431.933 412.662 438.6C412.662 445.233 411.062 450.133 407.862 453.3C404.662 456.433 399.762 458 393.162 458H378.762ZM451.05 458C443.417 458 437.767 456.183 434.1 452.55C430.467 448.883 428.65 443.233 428.65 435.6V412.5C428.65 404.8 430.484 399.15 434.15 395.55C437.817 391.917 443.45 390.133 451.05 390.2H463.05C470.717 390.2 476.367 392.017 480 395.65C483.634 399.283 485.45 404.933 485.45 412.6V435.6C485.45 443.233 483.634 448.883 480 452.55C476.367 456.183 470.717 458 463.05 458H451.05ZM451.05 449.6H463.05C466.617 449.6 469.417 449.183 471.45 448.35C473.484 447.483 474.917 446.033 475.75 444C476.617 441.967 477.05 439.167 477.05 435.6V412.6C477.05 409.067 476.617 406.283 475.75 404.25C474.917 402.217 473.484 400.767 471.45 399.9C469.417 399.033 466.617 398.6 463.05 398.6H451.05C447.517 398.567 444.734 398.967 442.7 399.8C440.667 400.633 439.217 402.067 438.35 404.1C437.484 406.133 437.05 408.933 437.05 412.5V435.6C437.05 439.167 437.467 441.967 438.3 444C439.167 446.033 440.617 447.483 442.65 448.35C444.684 449.183 447.484 449.6 451.05 449.6ZM508.004 458C505.204 458 503.804 456.6 503.804 453.8V394.4C503.804 391.6 505.204 390.2 508.004 390.2H544.804C546.104 390.2 547.121 390.583 547.854 391.35C548.621 392.083 549.004 393.1 549.004 394.4C549.004 397.2 547.604 398.6 544.804 398.6H512.204V419.6H532.304C535.104 419.6 536.504 421 536.504 423.8C536.504 426.6 535.104 428 532.304 428H512.204V453.8C512.204 456.6 510.804 458 508.004 458ZM580.647 458C579.247 458 578.197 457.65 577.497 456.95C576.797 456.25 576.447 455.2 576.447 453.8V398.7H557.047C555.647 398.7 554.597 398.35 553.897 397.65C553.197 396.95 552.847 395.9 552.847 394.5C552.847 393.1 553.197 392.05 553.897 391.35C554.597 390.65 555.647 390.3 557.047 390.3H604.247C605.647 390.3 606.697 390.65 607.397 391.35C608.097 392.05 608.447 393.1 608.447 394.5C608.447 395.9 608.097 396.95 607.397 397.65C606.697 398.35 605.647 398.7 604.247 398.7H584.847V453.8C584.847 455.133 584.481 456.167 583.747 456.9C583.047 457.633 582.014 458 580.647 458ZM638.276 458C636.443 458 635.143 456.8 634.376 454.4L615.876 395.8C615.476 394.533 615.66 393.267 616.426 392C617.226 390.733 618.376 390.1 619.876 390.1C620.676 390.1 621.443 390.367 622.176 390.9C622.91 391.4 623.443 392.2 623.776 393.3L640.076 445.2H637.876L653.376 393.8C653.743 392.6 654.36 391.7 655.226 391.1C656.126 390.5 657.043 390.2 657.976 390.2C658.976 390.2 659.943 390.5 660.876 391.1C661.81 391.7 662.443 392.6 662.776 393.8L678.276 445.2H676.076L692.376 393.3C692.743 392.2 693.26 391.417 693.926 390.95C694.626 390.45 695.376 390.2 696.176 390.2C697.643 390.2 698.81 390.767 699.676 391.9C700.543 393.033 700.743 394.333 700.276 395.8L681.776 454.4C680.976 456.8 679.51 458 677.376 458H677.176C674.943 458 673.476 456.8 672.776 454.4L656.676 402.3H658.876L642.676 454.4C642.343 455.6 641.843 456.5 641.176 457.1C640.543 457.7 639.576 458 638.276 458ZM707.05 457.6C704.383 456.567 703.583 454.733 704.65 452.1L728.45 393.5C729.45 391.3 731.016 390.2 733.15 390.2H733.35C735.516 390.3 736.983 391.4 737.75 393.5L761.95 452.1C763.016 454.733 762.25 456.567 759.65 457.6C757.016 458.633 755.183 457.867 754.15 455.3L748.75 442.2H717.6L712.45 455.3C711.416 457.9 709.616 458.667 707.05 457.6ZM720.9 433.8H745.3L732.85 403.5L720.9 433.8ZM820.451 458.2C819.351 458.9 818.301 459.117 817.301 458.85C816.301 458.583 815.451 457.9 814.751 456.8L799.251 431H785.251V453.8C785.251 456.6 783.851 458 781.051 458C778.251 458 776.851 456.6 776.851 453.8V394.4C776.851 391.6 778.251 390.2 781.051 390.2H804.451C810.551 390.2 815.218 391.833 818.451 395.1C821.718 398.333 823.351 403 823.351 409.1V412.1C823.351 417.4 822.118 421.633 819.651 424.8C817.185 427.933 813.618 429.883 808.951 430.65L822.051 452.5C823.318 454.833 822.785 456.733 820.451 458.2ZM785.251 422.6H804.451C808.251 422.6 810.951 421.8 812.551 420.2C814.151 418.6 814.951 415.9 814.951 412.1V409.1C814.951 405.333 814.151 402.65 812.551 401.05C810.951 399.417 808.251 398.6 804.451 398.6H785.251V422.6ZM843.551 458C840.751 458 839.351 456.6 839.351 453.8V394.4C839.351 391.6 840.751 390.2 843.551 390.2H879.451C882.251 390.2 883.651 391.6 883.651 394.4C883.651 397.2 882.251 398.6 879.451 398.6H847.751V419.6H867.651C870.451 419.6 871.851 421 871.851 423.8C871.851 426.6 870.451 428 867.651 428H847.751V449.6H879.451C882.251 449.6 883.651 451 883.651 453.8C883.651 456.6 882.251 458 879.451 458H843.551Z" fill="black"/>
</svg>
